<?xml version="1.0" encoding="utf-8"?>
<!-- Generator: Adobe Illustrator 22.1.0, SVG Export Plug-In . SVG Version: 6.00 Build 0)  -->
<svg version="1.1" id="Gear" xmlns="http://www.w3.org/2000/svg" xmlns:xlink="http://www.w3.org/1999/xlink" x="0px" y="0px"
	 viewBox="0 0 84 78" style="enable-background:new 0 0 84 78;" xml:space="preserve">
<style type="text/css">
	.st0{fill:#D5F4E1;}
	.st1{fill:#07244F;}
</style>
<title>Illustration</title>
<desc>Created with Sketch.</desc>
<g id="_x35_.0-404">
	<g id="DSKTP-_x2F_-5.0-Event-Details-Error" transform="translate(-679.000000, -512.000000)">
		<g id="Illustration" transform="translate(679.000000, 512.000000)">
			<g id="Group" transform="translate(0.000000, 7.000000)">
				<g>
					<path id="Combined-Shape_1_" class="st0" d="M52.6,14.1l5.5-3.9l-1.8,6.5l4.8,0l-2.8,5.1c1.8,3,3.1,6.3,3.5,9.9h5.9
						c2.7,0,4.8,2.2,4.8,4.8c0,2.7-2.2,4.8-4.8,4.8h-6.5c-0.8,3.2-2.2,6-4.1,8.6l5,5c1.9,1.9,1.9,4.9,0,6.8c-1.9,1.9-4.9,1.9-6.8,0
						l-5.3-5.3c-2.6,1.6-5.5,2.7-8.6,3.3v6c0,2.7-2.2,4.8-4.8,4.8c-2.7,0-4.8-2.2-4.8-4.8v-6.1c-2.9-0.6-5.6-1.7-8.1-3.2L18,61.9
						c-1.9,1.9-4.9,1.9-6.8,0c-1.9-1.9-1.9-4.9,0-6.8l5.3-5.3c-1.8-2.5-3.2-5.4-4-8.5H5.4c-2.7,0-4.8-2.2-4.8-4.8
						c0-2.7,2.2-4.8,4.8-4.8h6.5c0.5-3.6,1.7-6.9,3.5-9.9l-4.2-4.1c-1.9-1.9-1.9-4.9,0-6.8C13,9,16.1,9,18,10.9l3.9,3.9
						c2.9-2.1,6.2-3.7,9.9-4.4l0-4.9c0-2.7,2.2-4.8,4.8-4.8c2.7,0,4.8,2.2,4.8,4.8v4.8c3.8,0.7,7.3,2.3,10.3,4.5L52.6,14.1z M53,35
						c0-9-7.3-16.2-16.2-16.2S20.5,26,20.5,35s7.3,16.2,16.2,16.2S53,44,53,35z"/>
					<path class="st1" d="M36.5,71c-2.9,0-5.3-2.4-5.3-5.3v-5.7c-2.6-0.6-5.2-1.6-7.5-3l-5.3,5.3c-2.1,2.1-5.4,2.1-7.5,0
						c-1-1-1.6-2.3-1.6-3.8c0-1.4,0.6-2.8,1.6-3.8l5-5c-1.7-2.4-3-5.1-3.8-7.9H5.4c-2.9,0-5.3-2.4-5.3-5.3s2.4-5.3,5.3-5.3h6
						c0.5-3.3,1.6-6.4,3.3-9.3L10.8,18c-2.1-2.1-2.1-5.4,0-7.5c2.1-2.1,5.5-2.1,7.5,0l3.5,3.5c2.8-2,5.9-3.4,9.3-4.2l0-4.5
						c0-2.9,2.4-5.3,5.3-5.3c2.9,0,5.3,2.4,5.3,5.3v4.4c3.5,0.7,6.9,2.2,9.9,4.3l0.6-0.4l5.4-3.9c0.2-0.1,0.4-0.1,0.6,0
						c0.2,0.1,0.3,0.3,0.2,0.5l-1.7,5.8l4.2,0c0.2,0,0.3,0.1,0.4,0.2s0.1,0.3,0,0.5l-2.7,4.8c1.8,2.9,2.9,6.1,3.4,9.5h5.5
						c2.9,0,5.3,2.4,5.3,5.3c0,2.9-2.4,5.3-5.3,5.3h-6.2c-0.8,2.9-2.1,5.5-3.9,8l4.7,4.7c2.1,2.1,2.1,5.4,0,7.5
						c-2.1,2.1-5.4,2.1-7.5,0l-5-5.1c-2.5,1.5-5.2,2.5-8,3.1v5.6C41.8,68.6,39.4,71,36.5,71z M23.6,55.8c0.1,0,0.2,0,0.3,0.1
						c2.5,1.5,5.1,2.6,7.9,3.1c0.2,0,0.4,0.3,0.4,0.5v6.1c0,2.4,1.9,4.3,4.3,4.3c2.4,0,4.3-1.9,4.3-4.3v-6c0-0.2,0.2-0.4,0.4-0.5
						c3-0.5,5.8-1.6,8.4-3.2c0.2-0.1,0.5-0.1,0.6,0.1l5.3,5.3c1.7,1.7,4.4,1.7,6.1,0c1.7-1.7,1.7-4.4,0-6.1l-5-5
						c-0.2-0.2-0.2-0.5,0-0.7c1.9-2.6,3.3-5.4,4-8.4c0.1-0.2,0.3-0.4,0.5-0.4h6.5c2.4,0,4.3-1.9,4.3-4.3c0-2.4-1.9-4.3-4.3-4.3h-5.9
						c-0.3,0-0.5-0.2-0.5-0.4c-0.4-3.5-1.6-6.8-3.5-9.7c-0.1-0.2-0.1-0.3,0-0.5l2.4-4.3l-4,0c-0.2,0-0.3-0.1-0.4-0.2
						s-0.1-0.3-0.1-0.4l1.5-5.1l-4.3,3.1c0,0,0,0,0,0l-0.9,0.5c-0.2,0.1-0.4,0.1-0.5,0c-3-2.2-6.5-3.7-10.1-4.4
						c-0.2,0-0.4-0.2-0.4-0.5V5.4C40.8,3,38.9,1,36.5,1c-2.4,0-4.3,1.9-4.3,4.3l0,4.9c0,0.2-0.2,0.4-0.4,0.5
						c-3.5,0.7-6.8,2.2-9.7,4.3c-0.2,0.1-0.5,0.1-0.7,0l-3.9-3.9c-1.7-1.7-4.4-1.7-6.1,0c-1.7,1.7-1.7,4.4,0,6.1l4.2,4.1
						c0.2,0.2,0.2,0.4,0.1,0.6c-1.8,3-3,6.2-3.4,9.7c0,0.2-0.2,0.4-0.5,0.4H5.4C3,32.2,1,34.1,1,36.5c0,2.4,1.9,4.3,4.3,4.3h7.1
						c0.2,0,0.4,0.2,0.5,0.4c0.8,3,2.1,5.8,4,8.3c0.1,0.2,0.1,0.5,0,0.6l-5.3,5.3c-0.8,0.8-1.3,1.9-1.3,3.1s0.4,2.2,1.3,3.1
						c1.7,1.7,4.4,1.7,6.1,0l5.5-5.5C23.3,55.9,23.5,55.8,23.6,55.8z M52.6,14.1L52.6,14.1L52.6,14.1z M36.8,51.7
						C27.5,51.7,20,44.2,20,35c0-9.2,7.5-16.7,16.7-16.7S53.5,25.8,53.5,35C53.5,44.2,46,51.7,36.8,51.7z M36.8,19.2
						C28.1,19.2,21,26.3,21,35c0,8.7,7.1,15.7,15.7,15.7c8.7,0,15.7-7.1,15.7-15.7C52.5,26.3,45.5,19.2,36.8,19.2z"/>
				</g>
			</g>
			<polygon class="st1" points="58.1,12.5 52.4,8.8 54.7,7.5 50.7,4.4 51.3,3.6 56.5,7.6 54.3,8.8 58.6,11.7 			"/>
			<polygon class="st1" points="83.7,22.7 76.8,22 78.5,19.4 72.9,18.6 73.1,17.7 80.1,18.7 78.5,21.2 83.8,21.7 			"/>
			<rect x="66.5" y="22.1" transform="matrix(0.8944 -0.4472 0.4472 0.8944 -4.3306 32.6554)" class="st1" width="1" height="6.7"/>
			
				<rect x="60.5" y="0.5" transform="matrix(0.9923 -0.124 0.124 0.9923 -8.710679e-02 7.6009)" class="st1" width="1" height="8.1"/>
			<rect x="71" y="17.8" transform="matrix(0.7071 -0.7071 0.7071 0.7071 4.3249 57.4411)" class="st1" width="1" height="11.3"/>
			<g>
				<path id="Combined-Shape_2_" class="st0" d="M75,6.9c1.5,2,1.2,4.9-0.7,6.5l-5.5,0.8l2.3-5.6l-6.9,2.8l6-6.3
					C71.9,4.7,73.8,5.3,75,6.9z"/>
				<path class="st1" d="M68.8,14.7c-0.2,0-0.3-0.1-0.4-0.2c-0.1-0.1-0.1-0.3-0.1-0.5l1.8-4.5l-5.9,2.3c-0.2,0.1-0.5,0-0.6-0.2
					c-0.1-0.2-0.1-0.5,0.1-0.6l6-6.3c0.1-0.1,0.2-0.1,0.3-0.1c2-0.4,4.1,0.3,5.4,2l0,0c1.7,2.2,1.3,5.4-0.8,7.2
					c-0.1,0.1-0.2,0.1-0.3,0.1L68.8,14.7C68.9,14.7,68.8,14.7,68.8,14.7z M71.1,8.1c0.1,0,0.3,0.1,0.4,0.1c0.1,0.1,0.2,0.4,0.1,0.5
					l-2,4.8l4.5-0.7c1.6-1.5,1.8-4,0.5-5.8l0,0c-1-1.3-2.6-1.9-4.2-1.7l-4.3,4.5l4.8-1.9C71,8.1,71,8.1,71.1,8.1z M74.3,13.4
					L74.3,13.4L74.3,13.4z"/>
			</g>
		</g>
	</g>
</g>
</svg>
