<svg width="30" height="30" viewBox="0 0 30 30" fill="none" xmlns="http://www.w3.org/2000/svg">
<path fill-rule="evenodd" clip-rule="evenodd" d="M25.6217 28H2.37924C1.06551 28 0 26.9349 0 25.6217V2.37834C0 1.06512 1.06551 0 2.37924 0H25.6217C26.9353 0 28 1.06506 28 2.37834V25.6217C28 26.9349 26.9353 28 25.6217 28Z" transform="translate(1 1)" fill="white" stroke="#07244F" stroke-linecap="round" stroke-linejoin="round"/>
<path fill-rule="evenodd" clip-rule="evenodd" d="M20.3142 21.9048H1.58962C0.711425 21.9048 0 21.1924 0 20.3142V1.59058C0 0.711425 0.711425 0 1.58962 0H20.3142C21.1924 0 21.9048 0.711425 21.9048 1.59058V20.3142C21.9048 21.1924 21.1924 21.9048 20.3142 21.9048Z" transform="translate(4.04758 4.04764)" stroke="#07244F" stroke-linejoin="round"/>
<path fill-rule="evenodd" clip-rule="evenodd" d="M13.3333 6.66667C13.3333 10.3481 10.3489 13.3333 6.66616 13.3333C2.9844 13.3333 0 10.3481 0 6.66667C0 2.9852 2.9844 0 6.66616 0C10.3489 0 13.3333 2.9852 13.3333 6.66667Z" transform="translate(8.33334 8.33334)" fill="#D5F4E1" stroke="#07244F"/>
</svg>
