<svg width="14px" height="11px" viewBox="0 0 14 11" version="1.1" xmlns="http://www.w3.org/2000/svg">
  <g id="match" stroke="none" stroke-width="1" fill="none" fill-rule="evenodd">
    <g id="4.0.2-Community-max-lines" transform="translate(-14.000000, -728.000000)">
      <g id="Group-10" transform="translate(0.000000, 550.000000)">
        <g id="Group-9">
          <g id="Group-3" transform="translate(0.000000, 148.000000)">
            <g id="Group-2" transform="translate(12.000000, 26.000000)">
              <rect id="Rectangle-6" x="0" y="0" width="18" height="18"></rect>
                <path d="M8.4956,7.99999 L9,7 C10.932,7 11.9996,8.57199 11.9996,10.50399 C11.9996,12.43699 10.4276,14.00899 8.4956,14.00899 L5.5046,14.00899 C3.5726,14.00899 1.9996,12.43699 1.9996,10.50399 C1.9996,9.11652537 2.81345057,7.92389163 3.98752805,7.36083165 C4.03647455,7.33735806 4.03702638,8.48702625 3.9842126,8.52725035 C3.38678744,8.98226205 2.9996,9.69620984 2.9996,10.50399 C2.9996,11.88499 4.1236,13.00899 5.5046,13.00899 L8.4956,13.00899 C9.8766,13.00899 10.9996,11.88499 10.9996,10.50399 C10.9996,9.12399 9.8766,7.99999 8.4956,7.99999 Z M9.0046,3.99999 L11.9956,3.99999 C13.9276,3.99999 15.4996,5.57199 15.4996,7.50399 C15.4996,8.97634037 14.5838249,10.2294893 13.2938778,10.7438926 C13.0374833,10.8461372 12.9402666,9.81332645 13.0414948,9.76655876 C13.8995375,9.37014081 14.4996,8.51027304 14.4996,7.50399 C14.4996,6.12399 13.3766,4.99999 11.9956,4.99999 L9.0046,4.99999 C7.6236,4.99999 6.4996,6.12399 6.4996,7.50399 C6.4996,8.88499 7.6236,10.00899 9.0046,10.00899 C8.74094459,10.6317373 8.54629438,10.9329196 8.42064937,10.9125369 C6.76396418,10.6437819 5.4996,9.23954959 5.4996,7.50399 C5.4996,5.57199 7.0726,3.99999 9.0046,3.99999 Z" id="Combined-Shape" fill="#07244F"></path>
            </g>
          </g>
        </g>
      </g>
    </g>
  </g>
</svg>