<svg width="30" height="31" viewBox="0 0 30 31" fill="none" xmlns="http://www.w3.org/2000/svg">
<path fill-rule="evenodd" clip-rule="evenodd" d="M0.882051 20.1149L0.859332 20.153L0.859065 20.182L1.57792 20.3328C1.5842 20.3033 1.5842 20.3033 1.58512 20.2996L0.882051 20.1149ZM27.1801 3.54681H26.5991V3.70209H27.3491L27.1801 3.54681ZM6.81985 18.1835C5.01718 17.5458 3.73239 16.2746 2.9916 14.3533L2.59838 13.3335H3.2481C1.68885 12.0296 0.849508 10.1113 1.06745 8.4767L1.19099 7.55019L1.90832 7.81282C1.58527 7.26407 1.35401 6.66624 1.21924 6.01959C0.893694 4.46109 1.10674 2.98604 1.88888 1.57118L2.40507 0.637407L3.10892 1.43926C5.84177 4.55264 9.09716 6.33367 12.9925 6.78674C12.8638 4.06372 14.2568 1.88129 16.5781 0.786105C16.9247 0.622392 17.2018 0.53585 17.8156 0.374346C17.8181 0.373682 17.8181 0.373682 17.8207 0.373019C18.0685 0.307793 18.1799 0.277333 18.3101 0.237691L18.5286 0.205153L19.9009 0.214864L19.9016 0.214979C19.9779 0.227081 19.9779 0.227081 20.0614 0.239517C20.2297 0.264587 20.3104 0.277722 20.4121 0.298429C21.554 0.527511 22.5434 1.0117 23.3507 1.76525C23.4493 1.85695 23.437 1.85376 23.4931 1.83262C24.4582 1.46927 25.1418 1.21025 25.8199 0.950012C25.8398 0.942285 25.8398 0.942285 25.8601 0.934226C25.9631 0.893089 26.4548 0.674352 26.4068 0.695287L27.9999 0L27.4127 1.63603C27.2422 2.11099 27.027 2.54894 26.7641 2.96038C26.8693 2.92324 26.9781 2.88402 27.091 2.84265L28.0991 2.47301V3.99431L27.9014 4.2095C27.869 4.24427 27.869 4.24427 27.8432 4.27087C27.8374 4.27692 27.8374 4.27692 27.832 4.28249C27.8045 4.31092 27.7953 4.32103 27.7955 4.32074C27.1047 5.23686 26.3375 6.02501 25.4809 6.68274C25.4758 6.6867 25.4983 6.64059 25.4953 6.68168C25.4813 6.88433 25.4717 7.04872 25.4513 7.41882C25.4486 7.46792 25.4486 7.46792 25.4459 7.51715C25.3899 8.53103 25.3434 9.06033 25.2352 9.67153C24.6139 13.1857 23.0727 16.2034 20.599 18.6668C18.3421 20.9161 15.6371 22.3494 12.5094 22.9469C12.2066 23.0049 11.9494 23.0467 11.4389 23.1245C11.4202 23.1273 11.4202 23.1273 11.4015 23.1302C11.1598 23.167 11.0544 23.1833 10.8037 23.2138L7.40461 23.2056C7.29824 23.1896 7.29825 23.1896 7.19242 23.1736C6.85961 23.1234 6.73645 23.105 6.56689 23.0807L6.56447 23.0804C4.69271 22.8105 2.88034 22.1662 1.03007 21.1626C0.910942 21.0981 0.82251 21.0453 0.630859 20.9273C0.542428 20.8728 0.542428 20.8728 0.459506 20.8228L0 20.5486L0.109881 20.0248C0.118451 19.9836 0.118451 19.9836 0.13435 19.9185L0.282722 19.3537L0.866636 19.3591C2.80658 19.3769 3.73052 19.3131 4.77166 19.0071C5.49292 18.7953 6.17127 18.5234 6.81985 18.1835Z" transform="translate(1.15607 4.53616)" fill="#D5F4E1" stroke="#07244F" stroke-linecap="round" stroke-linejoin="round"/>
</svg>
