<svg width="30" height="30" viewBox="0 0 30 30" fill="none" xmlns="http://www.w3.org/2000/svg">
<path fill-rule="evenodd" clip-rule="evenodd" d="M27.5333 13.7667C27.5333 21.3698 21.3696 27.5333 13.7663 27.5333C6.16359 27.5333 0 21.3697 0 13.7667C0 6.16365 6.16359 0 13.7663 0C21.3696 0 27.5333 6.16353 27.5333 13.7667Z" transform="translate(1.23328 1.23332)" fill="white" stroke="#07244F"/>
<path fill-rule="evenodd" clip-rule="evenodd" d="M5.5998 13.0663C5.5998 5.85048 2.57746 0.000299173 0 0C7.21647 0.00029974 13.0665 5.85032 13.0665 13.0667C13.0665 20.283 7.21647 26.133 0 26.1333C2.57746 26.133 5.5998 20.2829 5.5998 13.0663Z" transform="translate(15.0002 1.9333)" fill="#D5F4E1"/>
<path d="M6.53333 26.1333C2.92476 26.1333 0 20.283 0 13.0663C0 5.8503 2.92476 0 6.53333 0" transform="translate(9.40002 1.9333)" stroke="#07244F"/>
<path d="M0 26.1333C3.60858 26.1333 6.53333 20.283 6.53333 13.0663C6.53333 5.8503 3.60858 0 0 0" transform="translate(14.0667 1.93329)" stroke="#07244F"/>
<path d="M0 0H26.1333" transform="translate(1.93335 15)" stroke="#07244F"/>
<path d="M0 0C3.3411 1.24444 6.73628 1.86667 10.1855 1.86667C13.6348 1.86667 17.0841 1.24444 20.5333 0" transform="translate(4.73328 6.59999)" stroke="#07244F"/>
<path d="M0 1.86667C3.66771 0.622223 7.37917 0 11.1344 0C14.8896 0 18.6448 0.622223 22.4 1.86667" transform="translate(3.80005 20.6)" stroke="#07244F"/>
</svg>
